# Blender 5.2.1 LTS
# www.blender.org
mtllib stone_1.mtl
o Stone_1_Icosphere
v 0.000000 -0.975181 -0.085701
v 0.606582 -0.682914 0.560349
v -0.231689 -0.511790 1.414542
v -0.749782 -0.374892 0.382035
v -0.231689 -0.397708 -1.289331
v 0.606582 -0.397708 -1.016956
v 0.263796 0.226919 1.234056
v -0.299094 0.423837 0.753492
v -0.470620 0.174828 -0.219459
v 0.231689 0.568834 -0.890044
v 0.750234 0.658015 0.589339
v 0.000000 0.838024 0.587383
vn 0.1237 -0.9426 0.3102
vn 0.5530 -0.8199 -0.1483
vn -0.5503 -0.8180 0.1677
vn -0.6860 -0.6986 -0.2031
vn 0.1464 -0.8806 -0.4507
vn 0.9942 -0.1061 -0.0192
vn 0.6593 -0.2709 0.7013
vn -0.8475 0.2642 0.4603
vn -0.9428 0.1567 -0.2944
vn 0.3002 0.2377 -0.9238
vn 0.8254 -0.1004 0.5556
vn -0.4606 0.4898 0.7402
vn -0.8767 0.4799 0.0317
vn -0.7220 0.5299 -0.4448
vn 0.8660 0.3788 -0.3264
vn 0.1784 0.7504 0.6364
vn -0.4043 0.5767 0.7099
vn -0.8119 0.5838 -0.0063
vn -0.6358 0.7356 -0.2337
vn 0.2314 0.9629 -0.1391
vt 0.818181 0.000000
vt 0.727272 0.157461
vt 0.909090 0.157461
vt 0.636363 0.000000
vt 0.545454 0.157461
vt 0.090909 0.000000
vt 0.000000 0.157461
vt 0.181818 0.157461
vt 0.272727 0.000000
vt 0.363636 0.157461
vt 0.454545 0.000000
vt 0.636363 0.314921
vt 0.818181 0.314921
vt 0.090909 0.314921
vt 0.272727 0.314921
vt 0.454545 0.314921
vt 1.000000 0.314921
vt 0.727272 0.472382
vt 0.909090 0.472382
vt 0.181818 0.472382
vt 0.363636 0.472382
vt 0.545454 0.472382
s 1
usemtl Material.003
f 1/1/1 2/2/1 3/3/1
f 2/2/2 1/4/2 6/5/2
f 1/6/3 3/7/3 4/8/3
f 1/9/4 4/8/4 5/10/4
f 1/11/5 5/10/5 6/5/5
f 2/2/6 6/5/6 11/12/6
f 3/3/7 2/2/7 7/13/7
f 4/8/8 3/7/8 8/14/8
f 5/10/9 4/8/9 9/15/9
f 6/5/10 5/10/10 10/16/10
f 2/2/11 11/12/11 7/13/11
f 3/3/12 7/13/12 8/17/12
f 4/8/13 8/14/13 9/15/13
f 5/10/14 9/15/14 10/16/14
f 6/5/15 10/16/15 11/12/15
f 7/13/16 11/12/16 12/18/16
f 8/17/17 7/13/17 12/19/17
f 9/15/18 8/14/18 12/20/18
f 10/16/19 9/15/19 12/21/19
f 11/12/20 10/16/20 12/22/20
