# Blender 5.2.1 LTS
# www.blender.org
mtllib stone_3.mtl
o Stone_3_Cube.001
v -0.400260 -0.288364 1.108560
v -0.298623 0.458456 -0.424538
v -0.532670 -0.298782 -1.272984
v -0.226460 0.501551 0.873413
v 0.546347 -0.288364 1.108560
v 0.755167 -0.234218 0.154286
v 0.649191 -0.298782 -1.272984
v 0.073043 -0.288364 1.108560
v -0.808056 -0.553399 -0.476943
v 0.289445 0.959713 0.873413
v 0.390892 0.934383 0.210046
v 0.344855 0.658551 -0.422408
v 0.031493 0.740786 0.873413
v -0.518657 0.683419 0.224687
vn -0.8272 0.3196 0.4622
vn -0.1956 0.2109 0.9577
vn 0.9251 0.3700 -0.0854
vn -0.8020 0.4255 -0.4192
vn -0.9679 0.0942 0.2332
vn -0.0000 0.2853 0.9584
vn -0.0759 0.7003 -0.7098
vn -0.6053 0.6527 0.4556
vn -0.2606 0.8867 -0.3819
vn -0.0583 0.1946 0.9792
vn -0.3717 0.9258 0.0688
vn -0.0000 -0.9984 -0.0566
vn 0.1320 -0.9884 -0.0744
vn 0.9329 0.3003 -0.1989
vn -0.8784 0.4505 -0.1598
vn 0.1252 -0.9875 0.0955
vn 0.9481 0.2575 0.1864
vt 0.125000 0.750000
vt 0.125000 0.625000
vt 0.250000 0.750000
vt 0.375000 0.625000
vt 0.375000 0.500000
vt 0.125000 0.500000
vt 0.375000 0.750000
s 1
usemtl Material.005
f 1/1/1 4/1/1 14/2/1
f 8/3/2 13/3/2 4/1/2
f 6/4/3 7/5/3 12/5/3
f 9/2/4 14/2/4 2/6/4
f 1/1/5 14/2/5 9/2/5
f 8/3/6 4/1/6 1/1/6
f 2/6/7 12/5/7 7/5/7 3/6/7
f 14/2/8 4/1/8 13/3/8
f 12/5/9 2/6/9 14/2/9 11/4/9
f 13/3/10 8/3/10 5/7/10 10/7/10
f 13/3/11 10/7/11 11/4/11 14/2/11
f 8/3/12 6/4/12 5/7/12
f 6/4/13 9/2/13 3/6/13 7/5/13
f 6/4/14 12/5/14 11/4/14
f 9/2/15 2/6/15 3/6/15
f 1/1/16 9/2/16 6/4/16 8/3/16
f 10/7/17 5/7/17 6/4/17 11/4/17
