# Blender 5.2.1 LTS
# www.blender.org
mtllib stone_2.mtl
o Stone_2_Icosphere.003
v 0.165645 0.072644 0.706332
v 0.455900 1.127963 0.063107
v 0.080827 1.315562 0.145291
v -0.721862 0.252089 0.081027
v -0.368897 -0.656789 0.373818
v 0.475559 -0.483241 -0.143172
v 0.200133 1.244404 -0.258853
v -0.203770 1.172117 -0.139421
v -0.668450 -0.197322 -0.425883
v -0.066047 -0.727913 -0.398542
v 0.249527 0.249778 -0.308618
v -0.178770 -0.060489 -0.507290
vn 0.3831 0.4016 0.8318
vn 0.9313 -0.0351 0.3627
vn -0.4989 0.3281 0.8022
vn -0.5696 0.0432 0.8208
vn 0.4945 -0.6336 0.5950
vn 0.7636 0.0912 -0.6393
vn 0.4424 0.8964 -0.0272
vn -0.7215 0.5167 0.4609
vn -0.9356 -0.3073 0.1739
vn 0.3185 -0.9243 0.2100
vn 0.7932 0.0697 -0.6049
vn -0.2384 0.9420 -0.2362
vn -0.8317 0.3690 -0.4148
vn -0.6449 -0.7417 -0.1846
vn 0.4487 -0.0628 -0.8915
vn 0.4582 -0.0664 -0.8864
vn 0.4540 -0.0648 -0.8887
vn 0.3807 0.0651 -0.9224
vn -0.3168 0.2654 -0.9106
vn -0.2317 0.2739 -0.9334
vn -0.1127 -0.1783 -0.9775
vn 0.4593 -0.0668 -0.8858
vt 0.818181 0.000000
vt 0.727272 0.157461
vt 0.909090 0.157461
vt 0.636363 0.000000
vt 0.545454 0.157461
vt 0.090909 0.000000
vt 0.000000 0.157461
vt 0.181818 0.157461
vt 0.272727 0.000000
vt 0.363636 0.157461
vt 0.454545 0.000000
vt 0.636363 0.314921
vt 0.818181 0.314921
vt 0.090909 0.314921
vt 0.272727 0.314921
vt 0.454545 0.314921
vt 1.000000 0.314921
vt 0.727272 0.472382
vt 0.909090 0.472382
vt 0.181818 0.472382
vt 0.363636 0.472382
vt 0.545454 0.472382
s 1
usemtl Material.002
f 1/1/1 2/2/1 3/3/1
f 2/2/2 1/4/2 6/5/2
f 1/6/3 3/7/3 4/8/3
f 1/9/4 4/8/4 5/10/4
f 1/11/5 5/10/5 6/5/5
f 2/2/6 6/5/6 11/12/6
f 3/3/7 2/2/7 7/13/7
f 4/8/8 3/7/8 8/14/8
f 5/10/9 4/8/9 9/15/9
f 6/5/10 5/10/10 10/16/10
f 2/2/11 11/12/11 7/13/11
f 3/3/12 7/13/12 8/17/12
f 4/8/13 8/14/13 9/15/13
f 5/10/14 9/15/14 10/16/14
f 6/5/15 10/16/16 11/12/17
f 7/13/18 11/12/18 12/18/18
f 8/17/19 7/13/19 12/19/19
f 9/15/20 8/14/20 12/20/20
f 10/16/21 9/15/21 12/21/21
f 11/12/17 10/16/16 12/22/22
